{
  "accessors": [
    {
      "bufferView": 2,
      "componentType": 5126,
      "count": 44991,
      "max": [
        8.960260391235352,
        2.6846730709075928,
        14.421928405761719
      ],
      "min": [
        -10.285346031188965,
        -2.6886420249938965,
        -22.89739990234375
      ],
      "type": "VEC3"
    },
    {
      "bufferView": 2,
      "byteOffset": 539892,
      "componentType": 5126,
      "count": 44991,
      "max": [
        0.9997971057891846,
        0.9997680187225342,
        0.9999367594718933
      ],
      "min": [
        -0.9999091029167175,
        -0.9999827742576599,
        -0.9999561309814453
      ],
      "type": "VEC3"
    },
    {
      "bufferView": 3,
      "componentType": 5126,
      "count": 44991,
      "max": [
        0.9998376965522766,
        0.9999332427978516,
        0.9999848008155823,
        1.0
      ],
      "min": [
        -0.9999500513076782,
        -0.9999415278434753,
        -0.999982476234436,
        -1.0
      ],
      "type": "VEC4"
    },
    {
      "bufferView": 1,
      "componentType": 5126,
      "count": 44991,
      "max": [
        0.0,
        0.0
      ],
      "min": [
        0.0,
        0.0
      ],
      "type": "VEC2"
    },
    {
      "bufferView": 1,
      "byteOffset": 359928,
      "componentType": 5126,
      "count": 44991,
      "max": [
        0.9999809861183167,
        0.9993370175361633
      ],
      "min": [
        2.2000000171829015e-05,
        6.0999998822808266e-05
      ],
      "type": "VEC2"
    },
    {
      "bufferView": 0,
      "componentType": 5125,
      "count": 171030,
      "type": "SCALAR"
    }
  ],
  "asset": {
    "extras": {
      "author": "Leon_dp (https://sketchfab.com/leondp)",
      "license": "CC-BY-4.0 (http://creativecommons.org/licenses/by/4.0/)",
      "source": "https://sketchfab.com/3d-models/stylized-simply-visualization-of-dna-51f5ab2ffc364f60be00289eb6909535",
      "title": "Stylized simply visualization of DNA"
    },
    "generator": "Sketchfab-13.74.0",
    "version": "2.0"
  },
  "bufferViews": [
    {
      "buffer": 0,
      "byteLength": 684120,
      "name": "floatBufferViews",
      "target": 34963
    },
    {
      "buffer": 0,
      "byteLength": 719856,
      "byteOffset": 684120,
      "byteStride": 8,
      "name": "floatBufferViews",
      "target": 34962
    },
    {
      "buffer": 0,
      "byteLength": 1079784,
      "byteOffset": 1403976,
      "byteStride": 12,
      "name": "floatBufferViews",
      "target": 34962
    },
    {
      "buffer": 0,
      "byteLength": 719856,
      "byteOffset": 2483760,
      "byteStride": 16,
      "name": "floatBufferViews",
      "target": 34962
    }
  ],
  "buffers": [
    {
      "byteLength": 3203616,
      "uri": "scene.bin"
    }
  ],
  "images": [
    {
      "uri": "textures/1001_baseColor.png"
    },
    {
      "uri": "textures/1001_metallicRoughness.png"
    },
    {
      "uri": "textures/1001_normal.png"
    }
  ],
  "materials": [
    {
      "alphaMode": "BLEND",
      "name": "1001",
      "normalTexture": {
        "index": 2,
        "texCoord": 1
      },
      "pbrMetallicRoughness": {
        "baseColorFactor": [
          0.24228645268252244,
          0.24228645268252244,
          0.24228645268252244,
          0.2971437627238483
        ],
        "baseColorTexture": {
          "index": 0
        },
        "metallicRoughnessTexture": {
          "index": 1
        }
      }
    }
  ],
  "meshes": [
    {
      "name": "defaultMaterial",
      "primitives": [
        {
          "attributes": {
            "NORMAL": 1,
            "POSITION": 0,
            "TANGENT": 2,
            "TEXCOORD_0": 3,
            "TEXCOORD_1": 4
          },
          "indices": 5,
          "material": 0,
          "mode": 4
        }
      ]
    }
  ],
  "nodes": [
    {
      "children": [
        1
      ],
      "matrix": [
        -0.675785481929779,
        0.7212867736816406,
        0.15185305476188676,
        0.0,
        -0.6994857788085938,
        -0.6925137639045715,
        0.17647758126258833,
        0.0,
        0.23245127499103546,
        0.013041932135820174,
        0.9725205898284912,
        0.0,
        0.0,
        0.0,
        0.0,
        1.0
      ],
      "name": "Sketchfab_model"
    },
    {
      "children": [
        2
      ],
      "matrix": [
        1.0,
        0.0,
        0.0,
        0.0,
        0.0,
        -4.371139006309477e-08,
        0.999999999999999,
        0.0,
        0.0,
        -0.999999999999999,
        -4.371139006309477e-08,
        0.0,
        0.0,
        0.0,
        0.0,
        1.0
      ],
      "name": "Collada visual scene group"
    },
    {
      "children": [
        3
      ],
      "matrix": [
        100.0,
        0.0,
        4e-06,
        0.0,
        4e-06,
        -4e-06,
        -100.0,
        0.0,
        0.0,
        100.0,
        -4e-06,
        0.0,
        365.141296,
        569.140198,
        270.475067,
        1.0
      ],
      "name": "DNA"
    },
    {
      "mesh": 0,
      "name": "defaultMaterial"
    }
  ],
  "samplers": [
    {
      "magFilter": 9729,
      "minFilter": 9987,
      "wrapS": 10497,
      "wrapT": 10497
    }
  ],
  "scene": 0,
  "scenes": [
    {
      "name": "Sketchfab_Scene",
      "nodes": [
        0
      ]
    }
  ],
  "textures": [
    {
      "sampler": 0,
      "source": 0
    },
    {
      "sampler": 0,
      "source": 1
    },
    {
      "sampler": 0,
      "source": 2
    }
  ]
}
