<?xml version="1.0" encoding="utf-8"?>
<!DOCTYPE svg PUBLIC "-//W3C//DTD SVG 1.0//EN" "http://www.w3.org/TR/2001/REC-SVG-20010904/DTD/svg10.dtd">
<svg version="1.0" xmlns="http://www.w3.org/2000/svg" width="705px" height="701px" viewBox="0 0 705 701" preserveAspectRatio="xMidYMid meet">
 <g fill="#000000">
  <path d="M340.25 637.80 c-11.35 -2.80 -19.50 -12.70 -20.50 -25.05 -1.05 -12.65 5.10 -23.60 15.90 -28.20 l2.35 -1 0 -49.80 0 -49.75 10 0 10 0 0 49.75 0 49.70 3.65 1.70 c6.55 3.05 11.30 8.55 13.50 15.60 1.40 4.55 1.50 13.45 0.15 18 -2.90 9.70 -10.80 17.25 -20.20 19.20 -3.45 0.70 -11.70 0.65 -14.85 -0.15z"/>
  <path d="M468.85 599.25 c-5.05 -1.30 -8.35 -3.20 -12.15 -6.95 -5.90 -5.90 -8.20 -11.60 -8.20 -20.35 0 -6.60 0.55 -9.25 2.75 -13.70 l1.75 -3.45 -5.20 -8.25 c-8.70 -13.95 -13.90 -22.35 -20.30 -32.80 -3.40 -5.50 -8.45 -13.70 -11.25 -18.25 -16.55 -26.90 -15.65 -24.40 -10.10 -27.40 2 -1.10 5.15 -3.05 7.05 -4.30 3.65 -2.45 6.90 -3.10 7.50 -1.55 0.15 0.40 3.05 5.20 6.45 10.65 3.40 5.40 7.75 12.45 9.60 15.60 4 6.70 23.30 37.85 28.25 45.50 1.85 2.90 3.85 6.20 4.50 7.30 l1.10 2.10 7.10 0.20 c6.15 0.20 7.50 0.40 10.55 1.60 8 3.05 13.80 9.60 16.05 18.05 0.95 3.55 0.90 13.85 -0.10 17.30 -0.90 3.10 -3.15 7.30 -5.40 10.10 -2.15 2.70 -8.25 6.65 -12.20 7.90 -4.40 1.40 -13.60 1.75 -17.75 0.70z"/>
  <path d="M237 580.25 c-1.25 -0.90 -8 -5.15 -15 -9.35 -7 -4.25 -15.15 -9.25 -18.10 -11.15 -5 -3.20 -5.40 -3.55 -5.40 -5.05 0 -2.25 5.10 -6.95 10.35 -9.55 3.70 -1.85 4.05 -1.90 10.20 -2.15 l6.40 -0.25 5.90 -9.50 c3.30 -5.20 9.35 -15 13.50 -21.75 10.70 -17.40 25.60 -41.60 28.20 -45.85 2.10 -3.45 2.30 -3.60 4.05 -3.65 1.30 0 2.70 0.55 4.50 1.70 1.45 0.90 4.60 2.75 7.05 4.05 3.90 2.10 4.35 2.50 4.35 3.75 0 1.90 -14.25 25.70 -40.15 66.95 l-9.85 15.65 1.20 2.65 c1.80 3.75 2.25 6.30 2.30 12.10 0 4.10 -0.25 5.90 -1.25 9.10 l-1.30 4.05 -2.35 -0.05 c-1.85 0 -2.85 -0.40 -4.60 -1.70z"/>
  <path d="M116 511.75 c-9.85 -2.20 -17.45 -9.35 -20.30 -19 -1.30 -4.50 -1.20 -12.95 0.20 -17.50 2.85 -9.30 10.85 -16.45 20.70 -18.55 7.25 -1.55 16.50 -0.15 21.90 3.30 2.40 1.55 2.55 1.60 3.75 0.80 0.70 -0.45 6.90 -3.95 13.85 -7.75 6.95 -3.80 18.75 -10.20 26.15 -14.30 7.45 -4.05 15.20 -8.35 17.25 -9.50 2.05 -1.15 9.05 -5 15.50 -8.50 6.45 -3.50 12.80 -7 14.15 -7.80 1.50 -0.90 3.05 -1.45 4.25 -1.45 1.70 0 1.90 0.15 2.75 2.15 0.45 1.20 2.20 4.60 3.85 7.55 1.90 3.45 3 5.95 3 6.95 0 1.45 -0.30 1.80 -3.10 3.30 -1.75 0.95 -7.30 4 -12.40 6.80 -5.10 2.85 -17.45 9.60 -27.50 15 -10.05 5.45 -23.70 12.90 -30.40 16.60 -6.65 3.65 -13.55 7.40 -15.35 8.25 l-3.25 1.60 0 5.05 c0 8.10 -2.10 13.80 -6.80 18.75 -5.65 5.90 -11.35 8.45 -19.70 8.80 -3.50 0.10 -6.35 -0.05 -8.50 -0.55z"/>
  <path d="M551.25 483.55 c-0.55 -0.50 -11.30 -6.50 -20.75 -11.55 -3.45 -1.85 -11.75 -6.35 -18.50 -10.10 -11.30 -6.20 -16.90 -9.25 -44 -23.80 -17.30 -9.30 -16 -8.45 -16 -10.10 0 -0.95 1.15 -3.30 3.25 -6.60 1.80 -2.85 3.80 -6.20 4.40 -7.50 1.55 -3.30 2.50 -3.20 10.55 1.20 6.90 3.75 18 9.80 29.30 15.90 3.70 2 13.30 7.25 21.25 11.65 8 4.40 16.85 9.30 19.75 10.80 2.90 1.55 9.15 4.95 13.85 7.55 l8.65 4.75 0 1.85 c0 1.35 -0.85 3.45 -3.05 7.50 -1.70 3.10 -3.40 6.35 -3.80 7.25 -0.60 1.45 -0.90 1.65 -2.55 1.65 -1.05 0 -2.10 -0.20 -2.35 -0.45z"/>
  <path d="M334.40 424 c-26.45 -4.80 -47 -25.05 -52.75 -52 -1.30 -6.10 -1.25 -21.55 0.05 -27.45 1.90 -8.80 4.95 -16.15 9.70 -23.30 2.60 -3.95 9.60 -11.45 12.60 -13.50 1.10 -0.75 2 -1.60 2 -1.80 0 -0.25 -1.65 -3.15 -3.70 -6.40 -2.05 -3.25 -5.60 -9.05 -7.85 -12.85 -4.65 -7.90 -12.30 -20.55 -17.95 -29.70 -7.35 -11.95 -24.35 -39.80 -29 -47.50 -2.55 -4.25 -7.15 -11.80 -10.20 -16.75 -3.10 -4.95 -6.90 -11.25 -8.55 -14 l-2.90 -5 -5.10 0.15 c-11.45 0.45 -20.95 -4.75 -25.80 -14.15 -2.55 -4.85 -3.10 -7.80 -2.90 -15.55 l0.20 -6.55 2.20 -4.45 c4.95 -10.05 13.70 -15.20 25.80 -15.20 9.15 0 15.20 2.35 20.75 7.95 5.85 5.90 7.70 11.45 7.40 21.85 -0.15 6.55 -0.20 6.60 -2.25 10.75 l-2.05 4.15 3.05 5.30 c3.80 6.65 37.35 62 46.60 77 7.10 11.50 28.35 46.70 29.25 48.55 1.20 2.25 0.85 2.20 6 0.75 10.10 -2.90 26.35 -2.95 37.75 -0.05 2.50 0.60 4.50 1.10 4.55 1.05 0 0 4.05 -6.80 8.95 -15.05 4.90 -8.25 13.25 -22.30 18.65 -31.25 5.35 -8.95 12.60 -21.10 16.10 -27 8.85 -14.90 31.20 -52.10 33.60 -55.90 l2.05 -3.10 -1.30 -2.90 c-2.10 -4.65 -2.50 -7.10 -2.25 -13.50 0.20 -4.65 0.50 -6.45 1.45 -8.85 1.15 -2.85 1.30 -3 3.05 -3.15 1.60 -0.15 3.40 0.75 13 6.30 6.15 3.55 15.65 9.15 21.15 12.45 9.75 5.80 10 6 10.15 7.70 0.15 1.55 -0.25 2.15 -2.85 5 -5.15 5.65 -10.85 7.95 -19.55 7.95 l-5.30 0 -1.55 2.65 c-0.85 1.40 -4.05 6.75 -7.15 11.85 -3.15 5.10 -8.10 13.30 -11.05 18.25 -5.60 9.50 -18.25 30.60 -34.70 58 -5.45 9.10 -13.15 22 -17.15 28.70 l-7.30 12.25 2 1.50 c3.45 2.65 10.40 10 12.75 13.60 7.60 11.40 11.05 22.95 11.10 37.20 0 8.55 -0.80 14.25 -2.95 21.05 -5.90 18.75 -19.05 33.15 -37.30 40.95 -8.25 3.50 -14 4.60 -25.40 4.80 -8.05 0.15 -10.70 0 -15.10 -0.80z m23.85 -20.20 c8.95 -2.45 15.55 -6.15 21.85 -12.20 5 -4.80 8 -9 10.95 -15.30 3 -6.40 4.05 -11 4.10 -17.80 0.05 -8.75 -2.15 -15.90 -7.40 -24.10 -10.05 -15.55 -29.25 -24.50 -46.40 -21.70 -19.10 3.15 -34 16.60 -39.45 35.55 -0.90 3.25 -1.10 5.15 -1.10 10.25 0.05 7.65 1.15 12 4.70 19.30 6.30 12.95 17.70 22.15 32.15 26 4.05 1.05 5.40 1.20 11.10 1 3.80 -0.10 7.75 -0.55 9.50 -1z"/>
  <path d="M88.75 385.80 c-9.45 -2.30 -17.05 -9.70 -19.50 -19.05 -1.10 -4.40 -1 -12.85 0.25 -16.80 2.65 -8.55 8.75 -14.85 17.05 -17.80 3.20 -1.15 4.55 -1.30 9.95 -1.35 5.15 -0.05 6.90 0.15 9.75 1.05 6.75 2.10 13.45 7.80 16.45 13.90 l1.40 2.90 49.45 -0.30 c27.20 -0.15 49.50 -0.10 49.60 0.05 0.10 0.20 0.10 4.70 -0.05 10 l-0.20 9.60 -49.35 0 -49.30 0.05 -1.50 3.35 c-2.85 6.35 -10.25 12.45 -17.50 14.35 -3.55 0.90 -12.85 0.95 -16.50 0.05z"/>
  <path d="M591.05 385.25 c-4.05 -0.90 -9.15 -3.30 -11.90 -5.55 -2.40 -1.95 -6.25 -7.10 -7.40 -9.90 l-0.75 -1.80 -49.45 0 -49.40 0 0.25 -9.60 c0.10 -5.30 0.25 -9.70 0.30 -9.75 0.05 -0.10 22.35 -0.30 49.50 -0.45 44.45 -0.35 49.40 -0.45 49.65 -1.15 1.55 -4.80 6.35 -10.70 10.80 -13.25 4.90 -2.90 9.05 -3.95 15.60 -4 6.65 -0.05 10.55 0.90 15.50 3.70 5.05 2.90 10 9.15 11.75 14.95 1.30 4.10 1.40 14 0.20 18.10 -2.50 8.60 -8.30 14.60 -17.15 17.85 -4.20 1.55 -12.65 1.95 -17.50 0.85z"/>
  <path d="M219.75 298.85 c-13.35 -7.45 -30.35 -16.80 -40.50 -22.20 -17 -9.10 -27.95 -15.05 -36 -19.45 -4.65 -2.55 -9.10 -4.90 -9.85 -5.25 -1.20 -0.50 -1.40 -0.90 -1.40 -2.50 0 -1.50 0.90 -3.50 4.10 -8.95 3.95 -6.80 4.10 -7 5.75 -7 1.45 0 11.65 5 19.40 9.50 0.85 0.45 4 2.15 7 3.75 3.05 1.60 5.75 3.10 6.05 3.30 0.50 0.40 4.90 2.75 23.20 12.45 15.15 8 25.95 13.85 38.10 20.70 5.90 3.30 6.40 3.65 6.40 5.05 0.05 0.95 -1.45 4.35 -3.85 9.10 l-3.90 7.65 -1.75 -0.05 c-1.30 0 -4.60 -1.60 -12.75 -6.10z"/>
  <path d="M459.20 301.40 c-0.80 -1.70 -2.65 -5 -4.05 -7.30 -2.65 -4.20 -3.25 -6.50 -2 -7.50 0.85 -0.70 14.50 -8.10 24.10 -13.10 8.50 -4.40 20.30 -10.75 31 -16.75 7.70 -4.30 27.60 -15.15 30.55 -16.65 l2.10 -1.05 0.20 -5.40 c0.35 -7.85 2.65 -13.40 7.85 -18.60 6.05 -6.05 16.50 -8.75 26.40 -6.90 10.70 2.05 19.50 10.30 21.60 20.25 0.70 3.30 0.70 10.60 0.05 14.15 -0.80 4.45 -3.75 9.80 -7.25 13.25 -9.50 9.35 -25.40 10.95 -37.05 3.75 l-2.55 -1.55 -6.95 3.80 c-3.80 2.10 -8.85 4.80 -11.20 6.10 -2.35 1.25 -8.20 4.45 -13.05 7.15 -15.25 8.45 -30.30 16.60 -41.95 22.70 -6.20 3.25 -11.45 6.05 -11.70 6.30 -0.30 0.25 -1.45 0.45 -2.55 0.45 -2.05 0 -2.10 -0.05 -3.55 -3.10z"/>
  <path d="M338.15 220.40 c0.05 -6.95 0.05 -29.20 -0.05 -49.40 l-0.15 -36.75 -3.60 -1.75 c-4.90 -2.35 -9.20 -6.70 -11.55 -11.55 -2.35 -4.95 -2.80 -7.15 -2.80 -14.20 0 -5.05 0.20 -6.55 1.20 -9.40 4.65 -13.15 17.95 -20.35 32.65 -17.70 9.80 1.80 17.20 7.75 20.70 16.75 1.55 3.95 1.95 14.60 0.70 18.95 -2.10 7.25 -7.50 13.80 -13.75 16.75 l-3.50 1.65 -0.10 42.25 c-0.10 23.25 -0.15 45.50 -0.15 49.50 l0 7.25 -9.85 0.15 -9.85 0.10 0.10 -12.60z"/>
 </g>
 <g fill="#ffffff">
  <path d="M0 350.50 l0 -350.50 352.50 0 352.50 0 0 350.50 0 350.50 -352.50 0 -352.50 0 0 -350.50z m353.60 285.95 c4.60 -0.95 9.55 -3.65 13 -7.10 5.50 -5.50 8.10 -11.85 8.05 -19.60 -0.05 -10.30 -5.40 -18.85 -14.50 -23.10 l-3.65 -1.70 0 -49.70 0 -49.75 -8.50 0 -8.50 0 0 49.75 0 49.80 -2.35 1 c-10.65 4.55 -17.25 16 -15.65 27.25 1.55 11.30 9.50 20.30 20.25 23 3.20 0.80 8.45 0.85 11.85 0.15z m131.50 -39.45 c3.95 -1.20 10.05 -5.10 12.20 -7.85 2.25 -2.80 4.50 -7 5.40 -10.10 1 -3.35 1.05 -10.85 0.10 -14.30 -2.25 -8.45 -8 -14.95 -16.05 -18.10 -3.20 -1.25 -4.10 -1.35 -10.45 -1.40 l-6.90 -0.05 -1.75 -2.95 c-0.95 -1.65 -3.05 -5 -4.65 -7.50 -4.05 -6.30 -23.60 -37.80 -27.75 -44.75 -1.85 -3.15 -6.20 -10.20 -9.60 -15.60 -3.40 -5.45 -6.30 -10.25 -6.45 -10.65 -0.45 -1.10 -0.70 -1 -4.50 1.55 -1.90 1.25 -5.05 3.20 -7.05 4.30 -2 1.10 -3.55 2.15 -3.45 2.30 1.50 2.55 17.05 27.85 18.80 30.60 1.30 2.05 4.55 7.35 7.25 11.75 4.75 7.80 7.35 12 19.45 31.35 l5.80 9.35 -1.45 2.40 c-2.75 4.45 -3.65 7.50 -3.95 12.95 -0.40 8.30 2.05 14.45 8.10 20.50 3.80 3.75 7.10 5.65 12.15 6.95 3.80 0.95 10.35 0.65 14.75 -0.75z m-241.35 -20.55 c2.15 -6.80 1.65 -12.85 -1.55 -19.10 -1.70 -3.45 -1.70 -3.45 -0.75 -4.75 1 -1.45 19.35 -30.75 26.70 -42.60 2.45 -4 8.70 -14.25 13.90 -22.85 l9.40 -15.60 -4.35 -2.35 c-2.40 -1.30 -5.55 -3.10 -7 -4 -1.45 -0.95 -2.80 -1.70 -3 -1.70 -0.35 0.05 -4.20 6.15 -19.85 31.75 -4.70 7.70 -12.50 20.30 -17.25 28 -4.80 7.70 -9.70 15.70 -10.95 17.75 l-2.30 3.75 -6.25 0 c-6.30 0 -6.30 0 -10.20 1.95 -2.45 1.20 -5.10 3.05 -7.15 5 l-3.25 3.05 5.45 3.45 c2.95 1.95 11.15 6.95 18.15 11.20 7 4.20 13.75 8.45 15 9.35 3.40 2.55 3.75 2.40 5.25 -2.30z m-112 -67.15 c4.30 -1.55 7.55 -3.70 10.95 -7.30 4.70 -4.95 6.80 -10.65 6.80 -18.75 l0 -5.05 3.25 -1.60 c1.80 -0.85 8.70 -4.60 15.35 -8.25 6.70 -3.70 20.35 -11.15 30.40 -16.60 10.05 -5.40 22.55 -12.25 27.75 -15.10 5.25 -2.90 10.75 -5.95 12.25 -6.75 1.50 -0.85 2.80 -1.60 2.90 -1.65 0.05 -0.05 -1.20 -2.55 -2.85 -5.55 -1.70 -2.95 -3.45 -6.35 -3.90 -7.55 -0.50 -1.20 -1.05 -2.15 -1.25 -2.15 -0.20 0 -1.45 0.65 -2.75 1.45 -1.35 0.80 -7.70 4.30 -14.15 7.80 -6.45 3.50 -13.45 7.35 -15.50 8.50 -2.05 1.15 -9.80 5.45 -17.25 9.50 -7.40 4.10 -19.15 10.50 -26.10 14.30 -6.90 3.80 -13.50 7.50 -14.60 8.25 l-2.05 1.35 -3.25 -2.15 c-10.15 -6.65 -23.30 -5.55 -32.55 2.65 -5.80 5.20 -8.75 11.75 -8.80 19.40 -0.05 7.50 2.50 13.70 7.75 18.95 7.15 7.15 18.25 9.70 27.60 6.30z m425.15 -32.80 c1.65 -3.15 3.40 -6.45 3.90 -7.35 0.50 -0.85 0.80 -1.70 0.70 -1.80 -0.35 -0.30 -13.80 -7.70 -21.50 -11.85 -3.45 -1.85 -12.75 -6.95 -20.75 -11.35 -7.95 -4.40 -17.55 -9.65 -21.25 -11.65 -8.45 -4.55 -21.90 -11.85 -29.70 -16.15 l-5.90 -3.20 -1.65 3.05 c-0.90 1.65 -2.90 5 -4.40 7.40 l-2.85 4.35 3.15 1.70 c1.70 0.95 7.50 4.05 12.85 6.95 27.10 14.55 32.70 17.60 44 23.80 6.75 3.75 15.05 8.25 18.50 10.10 9.50 5.10 20.20 11.05 20.75 11.55 0.25 0.25 0.60 0.40 0.80 0.35 0.20 -0.10 1.70 -2.75 3.35 -5.90z m-193.75 -54.70 c16.35 -3.85 30.45 -13.70 39.70 -27.70 7.15 -10.80 10.70 -22.75 10.70 -35.95 0.05 -19.10 -8.55 -37.30 -23 -48.75 -2.10 -1.65 -3.75 -3.20 -3.70 -3.40 0.10 -0.40 11.65 -19.85 25.40 -42.75 16 -26.70 29 -48.35 34.75 -58 5.90 -9.90 14 -23.30 17.85 -29.50 1.55 -2.50 2.75 -3.95 3.20 -3.80 0.40 0.10 2.50 0.30 4.75 0.45 7.20 0.40 13.70 -2.30 18.75 -7.85 2.80 -3.05 2.95 -3.30 2.10 -3.95 -1.15 -0.85 -22.30 -13.45 -33.30 -19.80 -4.60 -2.65 -8.60 -4.70 -8.85 -4.55 -1.10 0.70 -2.65 6.20 -2.85 10.55 -0.30 5.15 0.45 8.60 2.95 13.30 l1.50 2.80 -1.85 2.85 c-2.40 3.80 -26.70 44.20 -34.75 57.75 -3.50 5.90 -10.75 18.05 -16.10 27 -5.40 8.95 -13.90 23.20 -18.95 31.65 -7.90 13.35 -9.30 15.40 -10.15 15.20 -0.60 -0.15 -3.20 -0.80 -5.80 -1.50 -12.15 -3.20 -27.40 -2.85 -38.10 0.90 -4 1.40 -4.35 1.30 -5.95 -1.85 -0.85 -1.70 -22.40 -37.35 -29.20 -48.40 -2.65 -4.30 -19.05 -31.30 -33.15 -54.50 -9.45 -15.55 -17.60 -29.45 -17.60 -29.95 0 -0.25 0.40 -0.80 0.95 -1.25 0.50 -0.45 1.65 -2.45 2.55 -4.40 1.45 -3.15 1.70 -4.25 1.90 -8.65 0.40 -8.60 -1.85 -14.65 -7.40 -20.30 -13.05 -13.25 -35.25 -9.55 -43.55 7.25 -2.05 4.15 -2.20 4.70 -2.35 9.45 -0.25 6.10 0.40 9.45 2.85 14.10 4.65 9 14.85 14.85 24.55 14.10 2.05 -0.20 4.20 -0.45 4.80 -0.60 0.90 -0.30 1.45 0.40 4.25 5.10 1.75 2.95 5.65 9.45 8.75 14.40 3.05 4.95 7.65 12.50 10.20 16.75 4.65 7.70 21.65 35.55 29 47.50 5.55 9 13.25 21.70 17.85 29.50 2.20 3.70 5.95 9.90 8.35 13.70 2.35 3.85 4.30 7.25 4.30 7.60 0 0.35 -1.30 1.65 -2.85 2.85 -11.20 8.60 -19.15 21.70 -22.45 36.90 -1.30 5.80 -1.30 18.45 0 24.45 4.20 20.10 16.75 36.70 34.65 45.90 10.35 5.30 18.95 7.20 31.65 6.90 6.60 -0.15 9.35 -0.45 13.65 -1.50z m-259.40 -37.55 c7.25 -1.90 14.65 -8 17.50 -14.35 l1.50 -3.35 49.40 -0.05 49.35 0 0 -8 c0 -4.40 -0.05 -8.15 -0.10 -8.35 -0.10 -0.25 -22.35 -0.30 -49.45 -0.20 l-49.35 0.20 -1.40 -2.95 c-1.80 -3.65 -6.05 -8.30 -9.95 -10.80 -10.70 -6.95 -25.95 -4.95 -34.35 4.55 -9.60 10.90 -9.20 26.20 0.95 36.45 3.25 3.30 7.65 5.75 12.40 6.90 3.55 0.85 10 0.85 13.50 -0.05z m503.30 -1.40 c8.80 -3.20 14.65 -9.20 17.15 -17.80 1.85 -6.35 0.70 -15.35 -2.75 -20.80 -8.05 -12.85 -24.05 -16.70 -37.30 -8.95 -4.45 2.55 -9.25 8.45 -10.80 13.25 -0.25 0.70 -5.20 0.80 -49.65 1.15 -27.15 0.15 -49.45 0.35 -49.50 0.45 -0.05 0.05 -0.20 3.75 -0.30 8.25 l-0.15 8.10 49.35 0 49.40 0 0.75 1.80 c1.15 2.80 5 7.95 7.40 9.90 7 5.75 18.10 7.70 26.40 4.65z m-370.40 -86.90 c2.15 -4.15 3.85 -7.60 3.75 -7.65 -1.80 -1.30 -26.75 -14.95 -44.40 -24.30 -18.30 -9.70 -22.70 -12.05 -23.20 -12.45 -0.30 -0.20 -3 -1.70 -6.05 -3.30 -3 -1.60 -6.15 -3.30 -7 -3.75 -4.40 -2.55 -17.85 -9.55 -18.05 -9.35 -0.50 0.50 -8.20 13.90 -8.20 14.25 0 0.25 0.60 0.70 1.40 1.05 0.75 0.35 5.20 2.70 9.85 5.25 8.05 4.40 19 10.35 36 19.45 10.15 5.40 27.15 14.75 40.50 22.20 6.05 3.35 11.10 6.10 11.25 6.10 0.15 0 2 -3.35 4.15 -7.50z m227.15 6.60 c0.25 -0.25 5.50 -3.05 11.70 -6.30 11.65 -6.10 26.70 -14.25 41.95 -22.70 4.85 -2.70 10.70 -5.90 13.05 -7.15 8.10 -4.40 17.75 -9.70 18.75 -10.35 0.90 -0.55 1.35 -0.40 4.05 1.40 8.80 5.85 18.60 6.55 27.80 1.95 16.30 -8.15 20.05 -29.35 7.45 -41.95 -15.10 -15.05 -39.95 -8.60 -45.35 11.80 -0.40 1.35 -0.70 4.45 -0.70 6.85 l0 4.40 -2.10 1.05 c-3 1.50 -22.90 12.35 -30.65 16.70 -10.70 6 -22.50 12.35 -31 16.75 -9.35 4.85 -23.25 12.40 -24.10 13.10 -0.40 0.30 0.15 1.60 2 4.55 1.45 2.30 3.25 5.55 4.05 7.25 1.45 3 2.10 3.55 3.10 2.65z m-107.60 -80.55 c0.10 -5.10 0.20 -27.35 0.25 -49.50 l0.05 -40.25 3.50 -1.65 c6.25 -2.95 11.65 -9.50 13.75 -16.80 1.20 -4.10 0.85 -11.95 -0.70 -15.90 -3.45 -8.95 -10.95 -15 -20.60 -16.70 -13.05 -2.25 -25.65 5.35 -29.90 18.15 -1.15 3.50 -1.40 10.25 -0.50 14.15 1.65 7.25 7.20 14.30 13.80 17.50 l3.60 1.75 0.15 36.75 c0.10 20.20 0.15 42.45 0.10 49.40 l0 12.60 8.15 -0.10 8.20 -0.15 0.15 -9.25z"/>
  <path d="M343.25 406.45 c-12.65 -1 -25.55 -8 -33.85 -18.40 -3.50 -4.35 -7.45 -12.25 -8.95 -17.80 -1.65 -6 -1.65 -17.85 -0.05 -23.50 2.55 -8.85 7.75 -17.50 13.90 -23.15 19.50 -18 50.35 -17.20 68.75 1.75 6.25 6.40 10.30 13.40 12.55 21.70 1.55 5.80 1.55 16.80 0 22.60 -3.70 13.65 -13.50 25.75 -25.85 31.95 -7.55 3.80 -17.30 5.60 -26.50 4.85z"/>
 </g>
</svg>